<?xml version="1.0" encoding="UTF-8" standalone="no"?>
<!-- Created with Inkscape (http://www.inkscape.org/) -->

<svg
   xmlns:dc="http://purl.org/dc/elements/1.1/"
   xmlns:cc="http://creativecommons.org/ns#"
   xmlns:rdf="http://www.w3.org/1999/02/22-rdf-syntax-ns#"
   xmlns:svg="http://www.w3.org/2000/svg"
   xmlns="http://www.w3.org/2000/svg"
   xmlns:sodipodi="http://sodipodi.sourceforge.net/DTD/sodipodi-0.dtd"
   xmlns:inkscape="http://www.inkscape.org/namespaces/inkscape"
   width="200"
   height="40"
   viewBox="0 0 744.09449 1052.3622"
   id="svg2"
   version="1.1"
   inkscape:version="0.91 r13725"
   sodipodi:docname="logo (copy).svg">
  <defs
     id="defs4" />
  <sodipodi:namedview
     id="base"
     pagecolor="#ffffff"
     bordercolor="#666666"
     borderopacity="1.0"
     inkscape:pageopacity="0.0"
     inkscape:pageshadow="2"
     inkscape:zoom="10.935848"
     inkscape:cx="94.799933"
     inkscape:cy="25.145772"
     inkscape:document-units="px"
     inkscape:current-layer="layer1"
     showgrid="false"
     inkscape:window-width="3200"
     inkscape:window-height="1664"
     inkscape:window-x="0"
     inkscape:window-y="64"
     inkscape:window-maximized="1" />
  <metadata
     id="metadata7">
    <rdf:RDF>
      <cc:Work
         rdf:about="">
        <dc:format>image/svg+xml</dc:format>
        <dc:type
           rdf:resource="http://purl.org/dc/dcmitype/StillImage" />
        <dc:title />
      </cc:Work>
    </rdf:RDF>
  </metadata>
  <g
     inkscape:label="Layer 1"
     inkscape:groupmode="layer"
     id="layer1">
    <g
       id="g3390"
       transform="matrix(13.592671,0,0,13.592671,-3098.1704,5128.9414)">
      <g
         transform="translate(9.6808043,-394.74969)"
         id="text3344"
         style="font-style:normal;font-weight:normal;font-size:40px;font-family:sans-serif;letter-spacing:0px;word-spacing:0px;fill:#000000;fill-opacity:1;stroke:none;stroke-width:1px;stroke-linecap:butt;stroke-linejoin:miter;stroke-opacity:1">
        <path
           sodipodi:nodetypes="csccssccscccsccssc"
           inkscape:connector-curvature="0"
           id="path3349"
           style="font-style:normal;font-variant:normal;font-weight:bold;font-stretch:normal;font-size:90px;font-family:'Thirsty Script Extrabold Demo';-inkscape-font-specification:'Thirsty Script Extrabold Demo Bold'"
           d="m 58.244668,81.019695 c 12.877093,6.118467 28.146051,9.929217 38.44764,6.364009 6.575222,-2.275573 16.760792,-12.275931 20.884832,-19.655785 2.16,-3.87 4.77,-9.09 6.48,-12.42 -0.18,4.5 0.18,10.08 0.18,14.04 0,8.73 -1.8,11.16 -4.68,11.16 -1.26,0 -1.98,-0.36 -2.79,-1.26 l -7.92,4.95 c 4.23,5.4 12.33,6.12 15.21,6.12 15.12,0 23.94,-10.8 30.51,-22.59 -0.72,-1.71 -3.15,-3.42 -5.04,-3.6 -4.05,7.02 -7.74,11.88 -12.51,15.66 0.27,-1.08 0.45,-2.61 0.45,-4.68 0,-6.93 -2.07,-19.35 0.36,-32.67 l -12.42,-3.15 c -3.06,6.48 -7.78752,16.804417 -12.87,25.457959 -5.06061,8.616313 -11.1511,15.067088 -18.227161,19.24467 -6.088011,3.594256 -18.472645,3.876573 -36.065311,-2.970853 z" />
        <path
           inkscape:connector-curvature="0"
           id="path3351"
           style="font-style:normal;font-variant:normal;font-weight:bold;font-stretch:normal;font-size:90px;font-family:'Thirsty Script Extrabold Demo';-inkscape-font-specification:'Thirsty Script Extrabold Demo Bold'"
           d="m 178.08948,64.127919 c -6.48,10.98 -12.6,17.37 -17.01,17.37 -1.98,0 -3.96,-1.26 0.27,-11.52 l 11.07,-27.54 7.11,0 2.97,-7.2 -7.2,0 4.32,-10.62 -14.31,0 -4.32,10.62 -7.38,0 -2.97,7.2 7.47,0 -10.17,25.11 c -6.48,16.11 -0.9,22.77 8.01,22.77 11.34,0 20.52,-10.89 27.18,-22.59 -0.72,-1.71 -3.15,-3.42 -5.04,-3.6 z" />
        <path
           inkscape:connector-curvature="0"
           id="path3353"
           style="font-style:normal;font-variant:normal;font-weight:bold;font-stretch:normal;font-size:90px;font-family:'Thirsty Script Extrabold Demo';-inkscape-font-specification:'Thirsty Script Extrabold Demo Bold'"
           d="m 229.78183,64.127919 c -6.48,11.16 -12.15,17.37 -15.93,17.37 -1.8,0 -3.33,-1.53 0.72,-11.52 l 11.07,-27.54 -14.31,0 -9.63,23.85 c -5.4,9.09 -8.91,13.95 -12.42,13.95 -1.8,0 -3.06,-1.26 0.63,-10.26 l 11.07,-27.54 -14.31,0 -10.17,25.11 c -6.57,16.29 -0.72,22.77 7.38,22.77 5.76,0 10.44,-3.24 14.58,-8.1 0.99,5.67 5.22,8.1 10.17,8.1 10.26,0 19.35,-10.53 26.19,-22.59 -0.72,-1.71 -3.15,-3.42 -5.04,-3.6 z" />
        <path
           sodipodi:nodetypes="csccccssscsccsssccs"
           inkscape:connector-curvature="0"
           id="path3355"
           style="font-style:normal;font-variant:normal;font-weight:bold;font-stretch:normal;font-size:90px;font-family:'Thirsty Script Extrabold Demo';-inkscape-font-specification:'Thirsty Script Extrabold Demo Bold'"
           d="m 287.87033,71.830332 c -10.33121,7.534466 -17.20882,9.667587 -20.80882,9.667587 -1.53,0 -3.24,-1.26 0.9,-11.52 l 18.36,-45.36 -14.31,0 -9.72,23.94 c 0,0 -2.07,-7.29 -10.62,-7.29 -16.47,0 -25.02,27.36 -25.02,37.35 0,6.21 3.42,11.7 10.17,11.7 8.01,0 14.22,-7.47 14.22,-7.47 0,0 1.17,7.47 10.62,7.47 10.89,0 18.1679,-3.720874 29.41792,-11.983398 -0.72,-1.71 -1.3191,-6.324189 -3.2091,-6.504189 z m -44.29882,7.057587 c -1.8,0 -2.88,-0.99 -2.88,-3.33 0,-5.76 6.66,-22.59 13.77,-22.59 3.96,0 4.05,5.04 4.05,5.04 l -5.85,14.4 c 0,0 -4.05,6.48 -9.09,6.48 z" />
        <path
           sodipodi:nodetypes="csczsssccsccs"
           inkscape:connector-curvature="0"
           id="path3357"
           style="font-style:normal;font-variant:normal;font-weight:bold;font-stretch:normal;font-size:90px;font-family:'Thirsty Script Extrabold Demo';-inkscape-font-specification:'Thirsty Script Extrabold Demo Bold'"
           d="m 376.55315,64.002768 c -6.39,11.34 -22.0326,18.249844 -25.4794,18.443288 -2.49487,0.140019 -8.39044,0.705751 -8.4483,-5.258113 13.95557,-6.882533 19.46338,-10.292067 23.3852,-19.059103 3.92181,-8.767036 1.1825,-16.986071 -8.9875,-16.986071 -19.26,0 -28.35,21.149999 -28.35,33.119999 0,9.810001 6.03,15.930001 18.54,15.930001 17.28,0 28.26,-11.790001 34.38,-22.590001 -0.72,-1.71 -3.15,-3.42 -5.04,-3.6 z m -20.25,-12.69269 c 3.01608,0.51659 1.5825,5.433762 0.0107,7.598048 -4.88036,6.685356 -8.55894,8.432135 -15.27234,11.586023 -0.0299,-6.509628 5.87842,-20.791214 15.26164,-19.184071 z" />
        <path
           inkscape:connector-curvature="0"
           id="path3359"
           style="font-style:normal;font-variant:normal;font-weight:bold;font-stretch:normal;font-size:90px;font-family:'Thirsty Script Extrabold Demo';-inkscape-font-specification:'Thirsty Script Extrabold Demo Bold'"
           d="m 340.80368,70.948626 c -10.14452,5.876251 -16.04164,10.549293 -19.64164,10.549293 -1.53,0 -3.24,-1.17 0.9,-11.52 l 4.41,-10.71 c 1.89,-4.68 2.7,-7.74 2.7,-10.17 0,-4.77 -2.97,-7.83 -8.64,-7.83 -7.65,0 -14.31,5.49 -14.76,5.94 l 1.89,-4.77 -14.31,0 -18.9,46.71 14.31,0 12.15,-29.97 c 3.78,-4.32 7.92,-6.39 10.08,-6.39 1.35,0 2.43,0.72 2.43,1.98 0,1.35 -1.44,4.77 -3.15,9.09 l -1.35,3.33 c -6.39,15.93 -2.52,23.13 6.84,23.13 10.8,0 16.31124,-6.700934 25.82653,-12.828253 -0.72,-1.71 0.98,-5.735287 -0.78489,-6.54104 z"
           sodipodi:nodetypes="csccssccccccssccscc" />
        <path
           sodipodi:nodetypes="cccccccccccccccc"
           inkscape:connector-curvature="0"
           id="path3361"
           style="font-style:normal;font-variant:normal;font-weight:bold;font-stretch:normal;font-size:90px;font-family:'Thirsty Script Extrabold Demo';-inkscape-font-specification:'Thirsty Script Extrabold Demo Bold'"
           d="m 383.89596,81.497919 c -2.73477,2.37198 -3.96,-1.26 0.27,-11.52 l 11.07,-27.54 7.11,0 2.97,-7.2 -7.2,0 4.32,-10.62 -14.31,0 -4.32,10.62 -7.38,0 -2.97,7.2 7.47,0 -10.17,25.11 c -6.48,16.11 -0.9,22.77 8.01,22.77 18.73375,-0.26637 22.69568,-42.142689 48.9085,-6.114667 -21.11605,-28.700793 -25.71234,-19.057395 -43.7785,-2.705333 z" />
      </g>
    </g>
  </g>
</svg>
